<?xml version="1.0" encoding="UTF-8" standalone="no"?>
<svg
   height="16px"
   viewBox="0 0 16 16"
   width="16px"
   version="1.1"
   id="svg6"
   xmlns="http://www.w3.org/2000/svg"
   xmlns:svg="http://www.w3.org/2000/svg">
  <defs
     id="defs6" />
  <g
     id="g1"
     transform="scale(0.125)"
     fill="#000000">
    <rect
       id="rect1"
       x="57.0112"
       y="56.5771"
       width="3.558"
       height="35.2061" />
    <path
       id="path1"
       d="m64,28.4885c4.8287,0,8.7679-3.94,8.7679-8.7698,0-.6355-.1271-1.2709-.2542-1.9064-2.7956-.5084-5.5911-.8897-8.5138-.7626-2.7956,0-5.7182.2542-8.5138.7626-.1271.6355-.2542,1.271-.2542,1.9064,0,4.8297,3.9392,8.7698,8.7679,8.7698Z" />
    <path
       id="path2"
       d="m88.1436,23.6587c.3812,1.6523.5083,3.1775.5083,4.8297,0,9.7865-5.8453,18.3021-14.1049,22.2421l-.6354,10.422,7.4972,7.4988-7.4972,7.4988,4.9558,4.9568-4.9558,4.9568.6354,9.2781-10.5469,10.5491-10.5469-10.5491v-44.6113c-8.3867-3.94-14.1049-12.4556-14.1049-22.2421,0-1.6523.2541-3.1775.5083-4.8297-14.2319,8.5155-22.8728,23.7673-22.8728,40.29,0,26.055,21.0938,47.0261,47.0163,47.0261,26.0496,0,47.0163-21.0982,47.0163-47.0261-.1271-16.5227-8.7679-31.7744-22.8728-40.29Z" />
    <path
       id="path3"
       d="m64,3.1001C30.4195,3.1001,3.0999,30.4196,3.0999,64s27.3196,60.9,60.9001,60.9,60.8999-27.3198,60.8999-60.9S97.5806,3.1001,64,3.1001Zm0,116.6759c-30.7415,0-55.7514-25.0212-55.7514-55.7759S33.2586,8.2241,64,8.2241s55.7512,25.0209,55.7512,55.7759-25.0097,55.7759-55.7512,55.7759Z" />
  </g>
  <rect
     id="rect284599"
     width="16"
     height="16"
     x="12"
     y="6"
     style="fill:none" />
  <path
     id="path313222"
     class="error"
     style="fill:#e01b24;fill-opacity:1;fill-rule:nonzero;stroke-width:0.571429"
     d="m 12.571428,8 c -1.2564,0 -2.285714,1.029314 -2.285714,2.285714 v 1.142857 c -0.633143,0 -1.142857,0.509715 -1.142857,1.142858 v 1.714285 0.571429 0.571428 C 9.142857,15.745143 9.397714,16 9.714286,16 h 5.714285 C 15.745143,16 16,15.745143 16,15.428571 v -0.571428 -0.571429 -1.714285 c 0,-0.633143 -0.509714,-1.142858 -1.142857,-1.142858 V 10.285714 C 14.857143,9.029314 13.827828,8 12.571428,8 Z m 0,1.142857 c 0.643029,0 1.142858,0.499831 1.142858,1.142857 v 1.142857 h -2.285715 v -1.142857 c 0,-0.643026 0.499829,-1.142857 1.142857,-1.142857 z" />
</svg>
