<?xml version="1.0" encoding="UTF-8" standalone="no"?>
<svg
   width="16"
   height="16"
   version="1.1"
   xmlns="http://www.w3.org/2000/svg">
  <path
     style="fill:#000000;stroke-width:0.127389"
     d="m 10.10828,12.636942 c 0.92994,0 1.68153,0.751592 1.68153,1.681529 C 11.78981,15.248407 11.03822,16 10.10828,16 9.17834,16 8.42675,15.248407 8.42675,14.318471 v -1.681529 z m 0,-0.840764 c -0.92994,0 -1.68153,-0.751593 -1.68153,-1.681529 0,-0.929936 0.75159,-1.681528 1.68153,-1.681528 h 4.21656 c 0.92994,0 1.68153,0.751592 1.68153,1.681528 0,0.929936 -0.75159,1.681529 -1.68153,1.681529 z m 2.52229,-5.8980891 c 0,-0.9299362 0.75159,-1.6815285 1.68153,-1.6815285 0.92994,0 1.68153,0.7515923 1.68153,1.6815285 0,0.9299362 -0.75159,1.6815285 -1.68153,1.6815285 h -1.68153 z m -0.84076,0 c 0,0.9299362 -0.75159,1.6815285 -1.68153,1.6815285 -0.92994,0 -1.68153,-0.7515923 -1.68153,-1.6815285 V 1.6815285 C 8.42675,0.7515923 9.17834,0 10.10828,0 c 0.92994,0 1.68153,0.7515923 1.68153,1.6815285 z M 5.89172,3.3630571 c -0.92994,0 -1.68153,-0.7515923 -1.68153,-1.6815286 C 4.21019,0.7515923 4.96178,0 5.89172,0 6.82165,0 7.57325,0.7515923 7.57325,1.6815285 v 1.6815286 z m 0,0.8535033 c 0.92993,0 1.68153,0.7515923 1.68153,1.6815285 0,0.9299362 -0.7516,1.6815285 -1.68153,1.6815285 H 1.67516 c -0.92994,0 -1.68153,-0.7515923 -1.68153,-1.6815285 0,-0.9299362 0.75159,-1.6815285 1.68153,-1.6815285 z M 3.36943,10.114649 c 0,0.929936 -0.7516,1.681529 -1.68153,1.681529 -0.92994,0 -1.68153,-0.751593 -1.68153,-1.681529 0,-0.929936 0.75159,-1.681528 1.68153,-1.681528 h 1.68153 z m 0.84076,0 c 0,-0.929936 0.75159,-1.681528 1.68153,-1.681528 0.92993,0 1.68153,0.751592 1.68153,1.681528 v 4.203822 C 7.57325,15.248407 6.82165,16 5.89172,16 4.96178,16 4.21019,15.248407 4.21019,14.318471 Z" />
</svg>
